HIERARCHY
ROOT Hips
{
  OFFSET 5.70366 102.999 -1.77653
  CHANNELS 6 Xposition Yposition Zposition Zrotation Xrotation Yrotation
  JOINT RightUpLeg
  {
    OFFSET -8.9458 -8.66707 0.101652
    CHANNELS 3 Zrotation Xrotation Yrotation
    JOINT RightLeg
    {
      OFFSET 0 -44.4227 1.3727
      CHANNELS 3 Zrotation Xrotation Yrotation
      JOINT RightFoot
      {
        OFFSET 0.253549 -42.0924 -1.46059
        CHANNELS 3 Zrotation Xrotation Yrotation
        JOINT RightToes
        {
          OFFSET 0.04 -4.41509 8.4991
          CHANNELS 3 Zrotation Xrotation Yrotation
          End Site
          {
            OFFSET -0.08 -0.137448 9.77979
          }
        }
      }
    }
  }
  JOINT Spine
  {
    OFFSET 0 11.8905 0
    CHANNELS 3 Zrotation Xrotation Yrotation
    JOINT Spine1
    {
      OFFSET 0 25.6574 0.127663
      CHANNELS 3 Zrotation Xrotation Yrotation
      JOINT HEad
      {
        OFFSET 0 8.73416 0.011341
        CHANNELS 3 Zrotation Xrotation Yrotation
        End Site
        {
          OFFSET -0.29 12.7742 2.51395
        }
      }
      JOINT LeftShoulder1
      {
        OFFSET 8.99 -0.362252 -0.22
        CHANNELS 3 Zrotation Xrotation Yrotation
        JOINT LeftArm
        {
          OFFSET 10.2827 -0.00337999 0.322123
          CHANNELS 3 Zrotation Xrotation Yrotation
          JOINT LeftForeArm
          {
            OFFSET 26.2597 0.099144 -1.42434
            CHANNELS 3 Zrotation Xrotation Yrotation
            JOINT LeftHand
            {
              OFFSET 22.0902 0.085362 1.02216
              CHANNELS 3 Zrotation Xrotation Yrotation
              End Site
              {
                OFFSET 13.419 -0.6 1.50291
              }
            }
          }
        }
      }
      JOINT RightShoulder
      {
        OFFSET -8.99 -0.362252 -0.22
        CHANNELS 3 Zrotation Xrotation Yrotation
        JOINT RightArm
        {
          OFFSET -10.2827 -0.00338 0.322123
          CHANNELS 3 Zrotation Xrotation Yrotation
          JOINT RightForeArm
          {
            OFFSET -26.364 0.099144 -1.42434
            CHANNELS 3 Zrotation Xrotation Yrotation
            JOINT RightHand
            {
              OFFSET -22.0324 0.085362 1.02216
              CHANNELS 3 Zrotation Xrotation Yrotation
              End Site
              {
                OFFSET -13.3284 -0.6 1.50291
              }
            }
          }
        }
      }
    }
  }
  JOINT LeftUpLeg
  {
    OFFSET 8.9458 -8.66707 0.101652
    CHANNELS 3 Zrotation Xrotation Yrotation
    JOINT LeftLeg
    {
      OFFSET 0 -44.4227 1.3727
      CHANNELS 3 Zrotation Xrotation Yrotation
      JOINT LeftFoot
      {
        OFFSET -0.253549 -42.0924 -1.46059
        CHANNELS 3 Zrotation Xrotation Yrotation
        JOINT LeftToes
        {
          OFFSET -0.04 -4.41509 8.4991
          CHANNELS 3 Zrotation Xrotation Yrotation
          End Site
          {
            OFFSET 0.08 -0.047448 9.77979
          }
        }
      }
    }
  }
}
MOTION
Frames:	12
Frame Time:	0.0416667
-184.124 104.111 95.9251 0.0316671 0.130843 92.1048 0.193307 -1.96324 -1.67623 -1.61951 12.9127 -3.86139 -5.03894 -6.82667 -0.123279 0.0462048 0.000530891 0.662642 1.06935 0.911978 0.376494 -3.56204 0.829814 1.00232 0.0572384 3.08529 3.46941 -4.71355 -0.269934 5.90267 1.89915 -43.5847 3.81432 1.29611 9.83153 -8.29778 2.14933 9.28706 -49.8088 14.6114 0.586616 -1.9502 165.174 -39.7237 165.105 175.839 3.23128 157.242 23.3882 11.4629 2.03505 -3.2845 -1.02777 1.39296 2.07866 10.5839 19.92 2.97931 -5.317 -0.0576429 -1.36696e-009 8.75212e-006 -1.45904e-008 
-184.141 104.111 95.9457 0.0569536 0.13222 92.1182 0.218006 -1.94671 -1.65224 -1.6307 12.915 -3.90722 -5.11697 -6.82138 -0.123278 0.0462048 0.000530891 0.662642 1.06781 1.09046 0.3848 -3.59768 0.599105 1.01164 0.0243404 3.10019 3.38731 -4.67689 -0.26996 5.84966 1.80813 -43.6936 3.68796 1.40619 10.388 -8.26055 2.39773 9.15641 -49.9576 14.6608 0.581557 -1.97702 145.806 -68.4369 148.953 174.837 32.9177 162.01 25.5784 11.2149 0.341208 -3.2732 -1.04463 1.40019 2.08303 10.6435 19.8993 2.96524 -5.31635 -0.0576428 -1.36696e-009 8.75212e-006 -1.45904e-008 
-184.156 104.111 95.9757 0.0986306 0.178454 92.1476 0.198056 -1.92747 -1.65402 -1.65298 12.9609 -3.926 -5.07009 -6.86254 -0.123288 0.0462048 0.000530891 0.662642 0.993172 1.24105 0.368041 -3.59376 0.456836 0.996453 -0.0184537 3.02605 3.05434 -4.65256 -0.27043 5.84415 1.64021 -43.8198 3.41043 1.5145 10.8955 -8.15787 2.47319 9.11325 -50.2264 14.6556 0.56039 -2.07365 48.4317 -77.2269 52.8157 172.463 58.2376 167.745 28.2589 10.9012 -1.43174 -3.30426 -1.00856 1.38724 2.08239 10.6419 19.8965 2.97354 -5.3068 -0.0576419 -1.36696e-009 8.75212e-006 -1.45904e-008 
-184.181 104.111 96.0001 0.0935511 0.220056 92.1598 0.165719 -1.98207 -1.66383 -1.65654 13.0416 -3.91116 -5.02086 -6.90843 -0.1233 0.0462048 0.000530891 0.662642 0.884113 1.21103 0.344426 -3.47218 0.551253 0.958506 -0.13587 2.89758 2.57853 -4.71354 -0.27141 5.84033 1.53599 -43.8733 3.20928 1.51418 10.4679 -8.09834 1.92363 9.39903 -50.2442 14.5651 0.555842 -2.08825 24.3538 -71.9945 27.7729 -178.958 64.9519 163.159 30.7616 10.711 -2.43972 -3.32887 -1.00688 1.37628 2.06721 10.5962 19.8969 3.00824 -5.2856 -0.05764 -1.36696e-009 8.75212e-006 -1.45904e-008 
-184.238 104.111 96.034 0.0549841 0.226599 92.1278 0.183182 -2.09845 -1.61907 -1.65273 13.1061 -3.9453 -5.13337 -6.91812 -0.123303 0.0462048 0.000530891 0.662642 0.794296 1.23832 0.327764 -3.31882 0.60022 0.914468 -0.116168 2.81 2.53599 -4.79317 -0.275674 5.86177 1.49639 -43.8664 3.08118 1.44144 10.202 -8.16264 1.9029 9.41252 -49.999 14.4033 0.548799 -2.10974 16.8128 -70.713 18.4778 -166.286 64.7557 154.297 33.2994 10.5243 -3.28429 -3.30062 -1.09917 1.39675 2.04097 10.6197 19.8814 2.96854 -5.25612 -0.0576372 -1.36696e-009 8.75212e-006 -1.45904e-008 
-184.302 104.111 96.0884 0.0754717 0.247946 92.0582 0.219652 -2.17151 -1.54532 -1.68725 13.2051 -3.97477 -5.26003 -6.93795 -0.123308 0.0462048 0.000530891 0.662642 0.663555 1.52023 0.327206 -3.09555 0.395478 0.872698 -0.00244966 2.87999 2.85217 -4.97654 -0.287346 5.92422 1.64631 -43.7439 3.00515 1.26785 10.9025 -8.33203 2.89362 8.90424 -49.7486 14.021 0.548842 -2.08251 10.9516 -70.7199 10.5172 -154.459 62.3527 146.26 35.9079 10.2072 -4.40912 -3.26077 -1.12802 1.45202 1.98692 10.6479 19.9011 2.94524 -5.22857 -0.0576347 -1.36696e-009 8.75212e-006 -1.45904e-008 
-184.34 104.114 96.1427 0.0990189 0.292318 92.0093 0.224979 -2.20795 -1.51712 -1.72775 13.2922 -3.93417 -5.28923 -6.96028 -0.123314 0.0462048 0.000530891 0.662642 0.605325 1.70222 0.403633 -2.94106 0.244672 0.925751 -0.0664266 3.09773 2.66912 -5.22207 -0.266475 5.7325 1.87633 -43.7455 2.9781 1.21679 11.2778 -8.41457 3.1895 8.75251 -49.6964 13.842 0.616718 -1.74784 2.0749 -73.2049 -0.114973 -146.138 57.6067 142.535 38.3796 9.78117 -5.68494 -3.25943 -1.09535 1.47337 1.94976 10.5962 19.9425 2.95921 -5.19747 -0.0576318 -1.36696e-009 8.75212e-006 -1.45904e-008 
-184.362 104.125 96.1777 0.00792465 0.342154 91.999 0.174796 -2.31089 -1.56236 -1.71195 13.2685 -3.85472 -5.29434 -6.9503 -0.123311 0.0462048 0.000530891 0.662642 0.81079 1.51418 0.488795 -3.25338 0.463119 1.07112 -0.0062608 3.25693 2.25223 -5.0265 -0.22243 5.4237 1.66355 -44.0726 2.80558 1.49561 10.7534 -8.30039 2.24428 9.23622 -49.9435 14.4171 0.683357 -1.4878 -10.4898 -74.5772 -13.8054 -138.566 53.3125 139.623 40.8774 9.2628 -7.03935 -3.31812 -1.15074 1.39422 1.98605 10.4775 20.0018 2.90171 -5.10704 -0.0576236 -1.36696e-009 8.75212e-006 -1.45904e-008 
-184.369 104.14 96.2095 -0.109253 0.39877 91.9963 0.096871 -2.45259 -1.64854 -1.67013 13.2921 -3.74831 -5.29282 -6.96876 -0.123316 0.0462048 0.000530891 0.662642 1.08917 1.38779 0.44596 -3.77513 0.628836 1.12474 0.310964 3.34145 2.45515 -4.41557 -0.21365 5.42717 1.21354 -44.2425 2.66108 1.67797 10.303 -8.2475 1.62688 9.55376 -50.1677 15.0583 0.666244 -1.62445 -13.5042 -69.8902 -18.3845 -127.38 52.5283 131.341 43.0429 8.79388 -8.12337 -3.39036 -1.19035 1.2996 2.02352 10.2833 20.0999 2.91735 -4.96361 -0.0576109 -1.36696e-009 8.75212e-006 -1.45904e-008 
-184.345 104.151 96.2698 -0.151849 0.413437 92.032 0.105869 -2.50832 -1.67374 -1.65284 13.3868 -3.73394 -5.2958 -6.9941 -0.123323 0.0462048 0.000530891 0.662642 1.19816 1.44379 0.355549 -3.89882 0.557058 1.05594 0.37848 3.44117 2.89121 -4.16115 -0.214229 5.46202 1.22728 -44.0405 2.85494 1.51976 10.3739 -8.39629 2.01865 9.35209 -50.0414 15.0493 0.675927 -1.57964 -13.7401 -64.5934 -21.0183 -117.153 50.2474 123.24 45.4625 8.54917 -8.54387 -3.36776 -1.15334 1.29532 2.01831 10.1383 20.0779 2.96551 -4.89837 -0.0576528 -1.36696e-009 8.75212e-006 -1.45904e-008 
-184.298 104.158 96.36 -0.238248 0.375707 92.1138 0.207035 -2.50203 -1.61347 -1.63144 13.2426 -3.90714 -5.34939 -6.89708 -0.123297 0.0462048 0.000530891 0.662642 1.26431 1.13599 0.353049 -3.8242 0.905809 1.03755 0.208748 3.40418 2.84738 -4.33727 -0.199 5.31944 1.33343 -44.0599 2.84852 1.52693 10.8904 -8.43276 2.65606 9.02449 -49.8701 14.9203 0.728032 -1.33233 -15.2359 -60.5377 -25.0774 -109.757 46.3686 117.963 47.6985 8.42459 -8.65946 -3.27669 -1.23521 1.30761 2.0533 10.1608 19.9261 2.81939 -4.90866 -0.0580463 -1.36696e-009 8.75212e-006 -1.45904e-008 
-184.251 104.165 96.4566 -0.459899 0.400567 92.1706 0.206355 -2.60744 -1.63573 -1.55737 12.9684 -4.02061 -5.40936 -6.76207 -0.123253 0.0462048 0.000530891 0.662642 1.27912 0.768409 0.359099 -3.82917 1.25779 1.04328 0.211335 3.43703 2.54102 -4.36297 -0.213565 5.43233 1.09566 -44.2422 2.43574 1.67545 11.66 -8.30153 3.17893 8.75266 -49.9261 14.9136 0.674348 -1.57498 -16.1478 -57.8116 -28.3397 -103.939 41.8169 114.347 50.3466 8.0553 -9.24203 -3.27698 -1.42248 1.23745 2.11345 10.0997 19.9216 2.74775 -4.81217 -0.0584954 -1.36696e-009 8.75212e-006 -1.45904e-008 
